<?xml version="1.0" standalone="no"?><!DOCTYPE svg PUBLIC "-//W3C//DTD SVG 1.1//EN" "http://www.w3.org/Graphics/SVG/1.1/DTD/svg11.dtd"><svg t="1599703727866" class="icon" viewBox="0 0 1024 1024" version="1.1" xmlns="http://www.w3.org/2000/svg" p-id="893" width="15" height="15" xmlns:xlink="http://www.w3.org/1999/xlink"><defs><style type="text/css"></style></defs><path d="M512.01534 448c-158.82 0-384 245.52-384 400.5 0 69.8 53.62 111.5 143.48 111.5 97.68 0 162.18-50.16 240.52-50.16 79.02 0 143.7 50.16 240.52 50.16 89.86 0 143.48-41.7 143.48-111.5C896.01534 693.52 670.83534 448 512.01534 448z m-294.56-25.22c-20.8-69.3-84.88-114.18-143.12-100.26-58.24 13.92-88.58 81.38-67.78 150.68 20.8 69.3 84.88 114.18 143.12 100.26 58.24-13.92 88.58-81.38 67.78-150.68z m169.44-41.56c61.88-16.28 92.84-99.88 69.16-186.72s-93.04-144.02-154.92-127.74-92.84 99.88-69.16 186.72c23.68 86.84 93.06 144.04 154.92 127.74z m562.78-58.68c-58.24-13.92-122.3 30.96-143.12 100.26-20.8 69.3 9.54 136.76 67.78 150.68 58.24 13.92 122.3-30.96 143.12-100.26 20.8-69.3-9.54-136.76-67.78-150.68z m-312.54 58.68c61.88 16.28 131.24-40.9 154.92-127.74 23.68-86.84-7.28-170.42-69.16-186.72s-131.24 40.9-154.92 127.74c-23.68 86.84 7.28 170.44 69.16 186.72z" p-id="894" fill="#13227a"></path></svg>